<?xml version="1.0" standalone="no"?>
<!DOCTYPE svg PUBLIC "-//W3C//DTD SVG 20010904//EN"
 "http://www.w3.org/TR/2001/REC-SVG-20010904/DTD/svg10.dtd">
<svg version="1.0" xmlns="http://www.w3.org/2000/svg"
 width="1300.000000pt" height="1300.000000pt" viewBox="0 0 1300.000000 1300.000000"
 preserveAspectRatio="xMidYMid meet">

<g transform="translate(0.000000,1300.000000) scale(0.100000,-0.100000)"
fill="#000000" stroke="none">
<path d="M1743 10943 c-208 -297 -393 -728 -459 -1068 -60 -311 -57 -667 6
-940 34 -144 91 -316 103 -308 6 4 8 0 4 -10 -4 -10 -2 -27 3 -40 5 -12 27
-69 49 -127 127 -336 323 -655 541 -884 l87 -91 -13 -89 c-81 -551 7 -1117
249 -1590 181 -355 530 -745 962 -1077 249 -191 674 -482 1015 -694 69 -43
154 -97 190 -120 36 -23 103 -66 150 -96 120 -77 401 -261 430 -283 14 -10 68
-48 120 -84 346 -242 672 -533 830 -742 63 -84 133 -188 156 -233 l16 -30 66
64 67 64 -64 -66 -63 -67 153 -256 c85 -140 156 -256 159 -256 3 0 21 28 41
63 125 216 370 613 417 675 133 177 278 322 542 543 201 168 694 504 1200 819
987 614 1515 1055 1842 1535 78 116 178 293 178 316 0 8 -124 138 -275 289
l-275 275 -111 -110 c-67 -67 -121 -130 -136 -160 -144 -279 -439 -577 -915
-922 -81 -59 -144 -111 -141 -116 3 -6 1 -7 -5 -3 -6 4 -20 -2 -32 -14 -11
-11 -24 -20 -28 -20 -4 0 -37 -19 -72 -42 -34 -24 -91 -61 -125 -83 -34 -22
-73 -48 -86 -58 -24 -18 -24 -18 -4 -33 11 -8 24 -13 31 -10 6 2 11 -2 11 -10
0 -11 -8 -9 -35 7 -42 24 -77 15 -111 -32 -12 -17 -30 -28 -39 -27 -10 2 -17
-3 -16 -13 1 -11 -6 -15 -23 -13 -13 1 -26 -3 -29 -10 -3 -7 -11 -13 -18 -13
-12 0 -286 -171 -591 -371 -471 -308 -802 -564 -1083 -837 l-113 -110 -102
100 c-197 194 -419 378 -687 570 -182 130 -600 408 -606 402 -3 -3 -15 4 -27
15 -49 45 -221 149 -236 143 -8 -3 -12 -3 -9 1 13 12 -36 43 -53 34 -11 -6
-16 -5 -16 5 0 8 4 12 9 9 4 -3 8 -3 8 -1 0 3 -31 24 -69 47 -58 34 -73 40
-90 31 -11 -6 -23 -11 -28 -11 -4 1 3 7 16 14 24 13 23 14 -50 62 -41 27 -82
54 -91 59 -109 68 -535 365 -632 440 -361 281 -604 537 -749 792 -42 72 -79
120 -142 183 l-85 85 -288 -285 -287 -285 285 288 285 287 -405 408 -405 407
407 -405 407 -404 33 29 33 30 -30 -33 -29 -33 81 -81 82 -81 -40 106 c-21 59
-39 114 -39 122 0 10 -5 13 -12 9 -6 -4 -8 -3 -4 4 3 6 -2 50 -13 99 -46 208
-53 506 -16 708 96 533 412 983 841 1198 283 143 610 174 957 93 38 -9 72 -14
77 -11 5 3 10 2 12 -2 1 -5 35 -19 73 -32 416 -144 814 -468 1151 -936 61 -85
151 -246 409 -733 39 -72 72 -132 75 -132 3 0 70 123 150 272 80 150 167 313
194 363 130 242 344 511 566 713 184 166 316 258 520 362 58 30 108 59 112 64
4 6 8 8 8 3 0 -4 10 -1 23 8 13 8 26 13 29 10 3 -3 39 5 80 19 147 48 329 77
488 78 717 3 1326 -600 1435 -1421 27 -196 14 -454 -31 -648 -18 -77 -79 -263
-101 -308 -10 -20 21 5 88 72 l104 103 -45 47 -45 48 48 -45 47 -45 393 390
392 390 -390 -393 -390 -392 277 -277 277 -277 30 67 c46 102 126 359 149 478
60 304 72 630 35 904 l-20 140 76 81 c298 316 528 741 676 1250 176 601 75
1290 -283 1919 -45 78 -170 275 -176 275 -1 0 8 -31 21 -69 44 -131 56 -253
50 -491 -12 -452 -100 -835 -238 -1036 l-31 -46 113 -117 114 -116 -116 113
-115 113 -34 -48 c-63 -88 -231 -246 -335 -315 -104 -69 -259 -155 -332 -183
l-43 -17 -97 89 c-204 187 -341 283 -548 387 -526 263 -1165 294 -1769 86
-181 -63 -420 -176 -412 -197 3 -7 -1 -10 -9 -7 -7 3 -32 -4 -54 -16 -69 -35
-270 -174 -384 -266 -111 -88 -337 -306 -441 -424 l-57 -65 -62 70 c-227 260
-524 511 -785 665 l-73 43 -37 -34 -37 -34 34 37 34 37 -124 61 c-484 243
-1059 326 -1548 225 -108 -23 -250 -61 -261 -71 -2 -3 52 -62 120 -132 l125
-127 -131 128 -131 128 -94 -37 c-245 -96 -497 -260 -712 -464 l-88 -83 -77
34 c-245 107 -470 275 -622 467 l-34 42 -45 -42 -46 -43 44 46 43 47 -38 58
c-90 140 -149 306 -188 521 -41 225 -58 395 -58 588 0 194 15 305 56 427 12
37 22 68 21 68 -1 0 -20 -26 -42 -57z m7647 -1586 c0 -1 -51 -52 -112 -112
l-113 -110 110 113 c102 104 115 117 115 109z m-7500 -130 c0 -2 -10 -12 -22
-23 l-23 -19 19 23 c18 21 26 27 26 19z m-80 -80 c0 -2 -10 -12 -22 -23 l-23
-19 19 23 c18 21 26 27 26 19z m-70 -70 c0 -2 -10 -12 -22 -23 l-23 -19 19 23
c18 21 26 27 26 19z m3750 -10 c0 -2 -10 -12 -22 -23 l-23 -19 19 23 c18 21
26 27 26 19z m-503 -459 c-3 -8 -6 -5 -6 6 -1 11 2 17 5 13 3 -3 4 -12 1 -19z
m3168 -8 c-3 -5 -12 -10 -18 -10 -7 0 -6 4 3 10 19 12 23 12 15 0z m-3328 -16
c-3 -3 -12 -4 -19 -1 -8 3 -5 6 6 6 11 1 17 -2 13 -5z m-563 -3980 c3 -8 2
-12 -4 -9 -6 3 -10 10 -10 16 0 14 7 11 14 -7z m4033 -6 c-3 -8 -6 -5 -6 6 -1
11 2 17 5 13 3 -3 4 -12 1 -19z m-3237 -68 c8 -5 11 -10 5 -10 -5 0 -17 5 -25
10 -8 5 -10 10 -5 10 6 0 17 -5 25 -10z m420 -705 c13 -14 21 -25 18 -25 -2 0
-15 11 -28 25 -13 14 -21 25 -18 25 2 0 15 -11 28 -25z m75 -75 c10 -11 16
-20 13 -20 -3 0 -13 9 -23 20 -10 11 -16 20 -13 20 3 0 13 -9 23 -20z m1955 7
c0 -2 -17 -19 -37 -38 l-38 -34 34 38 c33 34 41 42 41 34z m-1875 -87 c10 -11
16 -20 13 -20 -3 0 -13 9 -23 20 -10 11 -16 20 -13 20 3 0 13 -9 23 -20z
m1795 7 c0 -2 -17 -19 -37 -38 l-38 -34 34 38 c33 34 41 42 41 34z m-1715 -87
c10 -11 16 -20 13 -20 -3 0 -13 9 -23 20 -10 11 -16 20 -13 20 3 0 13 -9 23
-20z m1635 7 c0 -2 -17 -19 -37 -38 l-38 -34 34 38 c33 34 41 42 41 34z
m-1555 -87 c10 -11 16 -20 13 -20 -3 0 -13 9 -23 20 -10 11 -16 20 -13 20 3 0
13 -9 23 -20z m1475 7 c0 -2 -17 -19 -37 -38 l-38 -34 34 38 c33 34 41 42 41
34z m-1395 -87 c10 -11 16 -20 13 -20 -3 0 -13 9 -23 20 -10 11 -16 20 -13 20
3 0 13 -9 23 -20z m1315 7 c0 -2 -17 -19 -37 -38 l-38 -34 34 38 c33 34 41 42
41 34z m-1235 -87 c10 -11 16 -20 13 -20 -3 0 -13 9 -23 20 -10 11 -16 20 -13
20 3 0 13 -9 23 -20z m1155 7 c0 -2 -17 -19 -37 -38 l-38 -34 34 38 c33 34 41
42 41 34z m-1075 -87 c10 -11 16 -20 13 -20 -3 0 -13 9 -23 20 -10 11 -16 20
-13 20 3 0 13 -9 23 -20z m995 7 c0 -2 -17 -19 -37 -38 l-38 -34 34 38 c33 34
41 42 41 34z m-915 -87 c10 -11 16 -20 13 -20 -3 0 -13 9 -23 20 -10 11 -16
20 -13 20 3 0 13 -9 23 -20z m835 7 c0 -2 -17 -19 -37 -38 l-38 -34 34 38 c33
34 41 42 41 34z m-755 -87 c10 -11 16 -20 13 -20 -3 0 -13 9 -23 20 -10 11
-16 20 -13 20 3 0 13 -9 23 -20z m675 7 c0 -2 -17 -19 -37 -38 l-38 -34 34 38
c33 34 41 42 41 34z m-595 -87 c10 -11 16 -20 13 -20 -3 0 -13 9 -23 20 -10
11 -16 20 -13 20 3 0 13 -9 23 -20z m515 7 c0 -2 -17 -19 -37 -38 l-38 -34 34
38 c33 34 41 42 41 34z m-435 -87 c10 -11 16 -20 13 -20 -3 0 -13 9 -23 20
-10 11 -16 20 -13 20 3 0 13 -9 23 -20z m355 7 c0 -2 -17 -19 -37 -38 l-38
-34 34 38 c33 34 41 42 41 34z m-275 -87 c10 -11 16 -20 13 -20 -3 0 -13 9
-23 20 -10 11 -16 20 -13 20 3 0 13 -9 23 -20z m147 -43 c-47 -48 -51 -54 -37
-70 14 -16 14 -16 -2 -2 -15 13 -20 12 -43 -7 -14 -13 9 12 50 55 41 42 77 77
79 77 3 0 -18 -24 -47 -53z m-87 -17 c10 -11 16 -20 13 -20 -3 0 -13 9 -23 20
-10 11 -16 20 -13 20 3 0 13 -9 23 -20z m100 -100 c10 -11 16 -20 13 -20 -3 0
-13 9 -23 20 -10 11 -16 20 -13 20 3 0 13 -9 23 -20z m-125 7 c0 -2 -17 -19
-37 -38 l-38 -34 34 38 c33 34 41 42 41 34z m205 -87 c10 -11 16 -20 13 -20
-3 0 -13 9 -23 20 -10 11 -16 20 -13 20 3 0 13 -9 23 -20z m-285 7 c0 -2 -17
-19 -37 -38 l-38 -34 34 38 c33 34 41 42 41 34z m370 -92 c13 -14 21 -25 18
-25 -2 0 -15 11 -28 25 -13 14 -21 25 -18 25 2 0 15 -11 28 -25z m55 -55 c10
-11 16 -20 13 -20 -3 0 -13 9 -23 20 -10 11 -16 20 -13 20 3 0 13 -9 23 -20z"/>
</g>
</svg>
